<svg width="319" height="67" viewBox="0 0 319 67" fill="none" xmlns="http://www.w3.org/2000/svg">
<path d="M111.402 30.2418C111.311 29.3252 110.921 28.6131 110.231 28.1055C109.542 27.5979 108.606 27.3441 107.425 27.3441C106.622 27.3441 105.944 27.4578 105.391 27.685C104.838 27.9047 104.413 28.2115 104.118 28.6055C103.83 28.9994 103.686 29.4464 103.686 29.9464C103.671 30.3631 103.758 30.7267 103.947 31.0373C104.144 31.3479 104.413 31.6168 104.754 31.8441C105.095 32.0638 105.489 32.257 105.936 32.4237C106.383 32.5828 106.86 32.7191 107.368 32.8328L109.459 33.3328C110.474 33.56 111.406 33.8631 112.254 34.2418C113.103 34.6206 113.838 35.0865 114.459 35.6396C115.08 36.1926 115.561 36.8441 115.902 37.5941C116.25 38.3441 116.428 39.204 116.436 40.1737C116.428 41.5979 116.065 42.8328 115.345 43.8782C114.633 44.9161 113.603 45.7229 112.254 46.2987C110.913 46.8668 109.296 47.1509 107.402 47.1509C105.523 47.1509 103.887 46.8631 102.493 46.2873C101.106 45.7115 100.023 44.8593 99.2428 43.7305C98.4701 42.5941 98.0648 41.1888 98.0269 39.5146H102.788C102.841 40.2949 103.065 40.9464 103.459 41.4691C103.86 41.9843 104.394 42.3744 105.061 42.6396C105.735 42.8971 106.497 43.0259 107.345 43.0259C108.178 43.0259 108.902 42.9047 109.516 42.6623C110.137 42.4199 110.618 42.0828 110.959 41.6509C111.3 41.2191 111.47 40.7229 111.47 40.1623C111.47 39.6396 111.315 39.2002 111.004 38.8441C110.701 38.4881 110.254 38.185 109.663 37.935C109.08 37.685 108.364 37.4578 107.516 37.2532L104.981 36.6168C103.019 36.1396 101.47 35.3934 100.334 34.3782C99.1974 33.3631 98.633 31.9956 98.6406 30.2759C98.633 28.8668 99.008 27.6358 99.7656 26.5828C100.531 25.5297 101.58 24.7078 102.913 24.1168C104.247 23.5259 105.762 23.2305 107.459 23.2305C109.186 23.2305 110.694 23.5259 111.981 24.1168C113.277 24.7078 114.284 25.5297 115.004 26.5828C115.724 27.6358 116.095 28.8555 116.118 30.2418H111.402Z" fill="black"/>
<path d="M127.541 47.1623C125.776 47.1623 124.249 46.7873 122.962 46.0373C121.681 45.2797 120.693 44.2267 119.996 42.8782C119.299 41.5221 118.95 39.9502 118.95 38.1623C118.95 36.3593 119.299 34.7835 119.996 33.435C120.693 32.079 121.681 31.0259 122.962 30.2759C124.249 29.5184 125.776 29.1396 127.541 29.1396C129.306 29.1396 130.829 29.5184 132.109 30.2759C133.397 31.0259 134.39 32.079 135.087 33.435C135.784 34.7835 136.132 36.3593 136.132 38.1623C136.132 39.9502 135.784 41.5221 135.087 42.8782C134.39 44.2267 133.397 45.2797 132.109 46.0373C130.829 46.7873 129.306 47.1623 127.541 47.1623ZM127.564 43.4123C128.367 43.4123 129.037 43.185 129.575 42.7305C130.113 42.2684 130.518 41.6396 130.791 40.8441C131.071 40.0487 131.212 39.1434 131.212 38.1282C131.212 37.1131 131.071 36.2078 130.791 35.4123C130.518 34.6168 130.113 33.9881 129.575 33.5259C129.037 33.0638 128.367 32.8328 127.564 32.8328C126.753 32.8328 126.071 33.0638 125.518 33.5259C124.973 33.9881 124.56 34.6168 124.28 35.4123C124.007 36.2078 123.871 37.1131 123.871 38.1282C123.871 39.1434 124.007 40.0487 124.28 40.8441C124.56 41.6396 124.973 42.2684 125.518 42.7305C126.071 43.185 126.753 43.4123 127.564 43.4123Z" fill="black"/>
<path d="M147.166 47.1623C145.378 47.1623 143.84 46.7835 142.552 46.0259C141.272 45.2608 140.287 44.2002 139.598 42.8441C138.916 41.4881 138.575 39.9275 138.575 38.1623C138.575 36.3744 138.92 34.8062 139.609 33.4578C140.306 32.1017 141.295 31.0449 142.575 30.2873C143.856 29.5221 145.378 29.1396 147.143 29.1396C148.666 29.1396 149.999 29.4161 151.143 29.9691C152.287 30.5221 153.193 31.2987 153.859 32.2987C154.526 33.2987 154.893 34.4729 154.962 35.8214H150.393C150.265 34.9502 149.924 34.2494 149.371 33.7191C148.825 33.1812 148.109 32.9123 147.223 32.9123C146.473 32.9123 145.818 33.1168 145.257 33.5259C144.704 33.9275 144.272 34.5146 143.962 35.2873C143.651 36.06 143.496 36.9956 143.496 38.0941C143.496 39.2078 143.647 40.1547 143.95 40.935C144.261 41.7153 144.696 42.31 145.257 42.7191C145.818 43.1282 146.473 43.3328 147.223 43.3328C147.776 43.3328 148.272 43.2191 148.712 42.9918C149.159 42.7646 149.526 42.435 149.814 42.0032C150.109 41.5638 150.302 41.0373 150.393 40.4237H154.962C154.886 41.757 154.522 42.9312 153.871 43.9464C153.227 44.954 152.337 45.7418 151.2 46.31C150.064 46.8782 148.719 47.1623 147.166 47.1623Z" fill="black"/>
<path d="M158.061 46.8214V29.3668H162.902V46.8214H158.061ZM160.493 27.1168C159.773 27.1168 159.156 26.8782 158.641 26.4009C158.133 25.9161 157.879 25.3365 157.879 24.6623C157.879 23.9956 158.133 23.4237 158.641 22.9464C159.156 22.4615 159.773 22.2191 160.493 22.2191C161.213 22.2191 161.826 22.4615 162.334 22.9464C162.849 23.4237 163.106 23.9956 163.106 24.6623C163.106 25.3365 162.849 25.9161 162.334 26.4009C161.826 26.8782 161.213 27.1168 160.493 27.1168Z" fill="black"/>
<path d="M171.757 47.1509C170.643 47.1509 169.651 46.9578 168.78 46.5714C167.909 46.1775 167.219 45.5979 166.712 44.8328C166.212 44.06 165.962 43.0979 165.962 41.9464C165.962 40.9767 166.14 40.1623 166.496 39.5032C166.852 38.8441 167.337 38.3138 167.95 37.9123C168.564 37.5108 169.261 37.2078 170.041 37.0032C170.829 36.7987 171.655 36.6547 172.518 36.5714C173.534 36.4653 174.352 36.3668 174.973 36.2759C175.594 36.1775 176.045 36.0335 176.325 35.8441C176.606 35.6547 176.746 35.3744 176.746 35.0032V34.935C176.746 34.2153 176.518 33.6585 176.064 33.2646C175.617 32.8706 174.981 32.6737 174.155 32.6737C173.284 32.6737 172.59 32.8668 172.075 33.2532C171.56 33.632 171.219 34.1093 171.052 34.685L166.575 34.3214C166.802 33.2608 167.249 32.3441 167.916 31.5714C168.583 30.7911 169.443 30.1926 170.496 29.7759C171.556 29.3517 172.784 29.1396 174.177 29.1396C175.147 29.1396 176.075 29.2532 176.962 29.4805C177.856 29.7078 178.647 30.06 179.337 30.5373C180.034 31.0146 180.583 31.6282 180.984 32.3782C181.386 33.1206 181.587 34.0108 181.587 35.0487V46.8214H176.996V44.4009H176.859C176.579 44.9464 176.204 45.4275 175.734 45.8441C175.265 46.2532 174.7 46.5752 174.041 46.81C173.382 47.0373 172.621 47.1509 171.757 47.1509ZM173.143 43.81C173.856 43.81 174.484 43.6699 175.03 43.3896C175.575 43.1017 176.003 42.7153 176.314 42.2305C176.624 41.7456 176.78 41.1964 176.78 40.5828V38.7305C176.628 38.829 176.42 38.9199 176.155 39.0032C175.897 39.079 175.606 39.1509 175.28 39.2191C174.954 39.2797 174.628 39.3365 174.302 39.3896C173.977 39.435 173.681 39.4767 173.416 39.5146C172.848 39.5979 172.352 39.7305 171.927 39.9123C171.503 40.0941 171.174 40.3403 170.939 40.6509C170.704 40.954 170.587 41.3328 170.587 41.7873C170.587 42.4464 170.825 42.9502 171.302 43.2987C171.787 43.6396 172.401 43.81 173.143 43.81Z" fill="black"/>
<path d="M190.183 23.5487V46.8214H185.342V23.5487H190.183Z" fill="black"/>
<path d="M214.183 30.2418C214.092 29.3252 213.702 28.6131 213.013 28.1055C212.323 27.5979 211.388 27.3441 210.206 27.3441C209.403 27.3441 208.725 27.4578 208.172 27.685C207.619 27.9047 207.195 28.2115 206.899 28.6055C206.611 28.9994 206.467 29.4464 206.467 29.9464C206.452 30.3631 206.539 30.7267 206.729 31.0373C206.926 31.3479 207.195 31.6168 207.535 31.8441C207.876 32.0638 208.27 32.257 208.717 32.4237C209.164 32.5828 209.642 32.7191 210.149 32.8328L212.24 33.3328C213.255 33.56 214.187 33.8631 215.035 34.2418C215.884 34.6206 216.619 35.0865 217.24 35.6396C217.861 36.1926 218.342 36.8441 218.683 37.5941C219.032 38.3441 219.21 39.204 219.217 40.1737C219.21 41.5979 218.846 42.8328 218.126 43.8782C217.414 44.9161 216.384 45.7229 215.035 46.2987C213.695 46.8668 212.077 47.1509 210.183 47.1509C208.304 47.1509 206.668 46.8631 205.274 46.2873C203.888 45.7115 202.804 44.8593 202.024 43.7305C201.251 42.5941 200.846 41.1888 200.808 39.5146H205.57C205.623 40.2949 205.846 40.9464 206.24 41.4691C206.641 41.9843 207.176 42.3744 207.842 42.6396C208.516 42.8971 209.278 43.0259 210.126 43.0259C210.96 43.0259 211.683 42.9047 212.297 42.6623C212.918 42.4199 213.399 42.0828 213.74 41.6509C214.081 41.2191 214.251 40.7229 214.251 40.1623C214.251 39.6396 214.096 39.2002 213.785 38.8441C213.482 38.4881 213.035 38.185 212.445 37.935C211.861 37.685 211.145 37.4578 210.297 37.2532L207.763 36.6168C205.801 36.1396 204.251 35.3934 203.115 34.3782C201.979 33.3631 201.414 31.9956 201.422 30.2759C201.414 28.8668 201.789 27.6358 202.547 26.5828C203.312 25.5297 204.361 24.7078 205.695 24.1168C207.028 23.5259 208.543 23.2305 210.24 23.2305C211.967 23.2305 213.475 23.5259 214.763 24.1168C216.058 24.7078 217.066 25.5297 217.785 26.5828C218.505 27.6358 218.876 28.8555 218.899 30.2418H214.183Z" fill="black"/>
<path d="M222.436 53.3668V29.3668H227.209V32.2987H227.425C227.637 31.829 227.944 31.3517 228.345 30.8668C228.754 30.3744 229.284 29.9653 229.936 29.6396C230.595 29.3062 231.413 29.1396 232.391 29.1396C233.663 29.1396 234.838 29.4729 235.913 30.1396C236.989 30.7987 237.849 31.7949 238.493 33.1282C239.137 34.454 239.459 36.1168 239.459 38.1168C239.459 40.0638 239.144 41.7078 238.516 43.0487C237.894 44.382 237.046 45.3934 235.97 46.0828C234.902 46.7646 233.705 47.1055 232.379 47.1055C231.44 47.1055 230.641 46.9502 229.981 46.6396C229.33 46.329 228.796 45.9388 228.379 45.4691C227.963 44.9918 227.644 44.5108 227.425 44.0259H227.277V53.3668H222.436ZM227.175 38.0941C227.175 39.132 227.319 40.0373 227.606 40.81C227.894 41.5828 228.311 42.185 228.856 42.6168C229.402 43.0411 230.065 43.2532 230.845 43.2532C231.633 43.2532 232.3 43.0373 232.845 42.6055C233.391 42.1661 233.803 41.56 234.084 40.7873C234.372 40.007 234.516 39.1093 234.516 38.0941C234.516 37.0865 234.375 36.2002 234.095 35.435C233.815 34.6699 233.402 34.0714 232.856 33.6396C232.311 33.2078 231.641 32.9918 230.845 32.9918C230.057 32.9918 229.391 33.2002 228.845 33.6168C228.307 34.0335 227.894 34.6244 227.606 35.3896C227.319 36.1547 227.175 37.0562 227.175 38.0941Z" fill="black"/>
<path d="M247.527 36.7305V46.8214H242.686V23.5487H247.391V32.4464H247.595C247.989 31.4161 248.625 30.6093 249.504 30.0259C250.383 29.435 251.485 29.1396 252.811 29.1396C254.023 29.1396 255.08 29.4047 255.981 29.935C256.891 30.4578 257.595 31.2115 258.095 32.1964C258.603 33.1737 258.853 34.3441 258.845 35.7078V46.8214H254.004V36.5714C254.012 35.4956 253.739 34.6585 253.186 34.06C252.641 33.4615 251.875 33.1623 250.891 33.1623C250.231 33.1623 249.648 33.3025 249.141 33.5828C248.641 33.8631 248.247 34.2721 247.959 34.81C247.678 35.3403 247.534 35.9805 247.527 36.7305Z" fill="black"/>
<path d="M270.609 47.1623C268.814 47.1623 267.268 46.7987 265.973 46.0714C264.685 45.3365 263.693 44.2987 262.996 42.9578C262.299 41.6093 261.95 40.0146 261.95 38.1737C261.95 36.3782 262.299 34.8025 262.996 33.4464C263.693 32.0903 264.674 31.0335 265.939 30.2759C267.212 29.5184 268.704 29.1396 270.416 29.1396C271.568 29.1396 272.64 29.3252 273.632 29.6964C274.632 30.06 275.503 30.6093 276.246 31.3441C276.996 32.079 277.579 33.0032 277.996 34.1168C278.412 35.2229 278.621 36.5184 278.621 38.0032V39.3328H263.882V36.3328H274.064C274.064 35.6358 273.912 35.0184 273.609 34.4805C273.306 33.9426 272.886 33.5221 272.348 33.2191C271.818 32.9085 271.2 32.7532 270.496 32.7532C269.761 32.7532 269.109 32.9237 268.541 33.2646C267.981 33.5979 267.541 34.0487 267.223 34.6168C266.905 35.1775 266.742 35.8025 266.734 36.4918V39.3441C266.734 40.2078 266.893 40.954 267.212 41.5828C267.537 42.2115 267.996 42.6964 268.587 43.0373C269.177 43.3782 269.878 43.5487 270.689 43.5487C271.227 43.5487 271.719 43.4729 272.166 43.3214C272.613 43.1699 272.996 42.9426 273.314 42.6396C273.632 42.3365 273.874 41.9653 274.041 41.5259L278.518 41.8214C278.291 42.8971 277.825 43.8365 277.121 44.6396C276.424 45.435 275.522 46.0562 274.416 46.5032C273.318 46.9426 272.049 47.1623 270.609 47.1623Z" fill="black"/>
<path d="M281.78 46.8214V29.3668H286.473V32.4123H286.655C286.973 31.329 287.507 30.5108 288.257 29.9578C289.007 29.3971 289.871 29.1168 290.848 29.1168C291.09 29.1168 291.352 29.132 291.632 29.1623C291.912 29.1926 292.159 29.2343 292.371 29.2873V33.5828C292.143 33.5146 291.829 33.454 291.427 33.4009C291.026 33.3479 290.659 33.3214 290.325 33.3214C289.613 33.3214 288.977 33.4767 288.416 33.7873C287.863 34.0903 287.424 34.5146 287.098 35.06C286.78 35.6055 286.621 36.2343 286.621 36.9464V46.8214H281.78Z" fill="black"/>
<path d="M302.016 47.1623C300.22 47.1623 298.675 46.7987 297.379 46.0714C296.091 45.3365 295.099 44.2987 294.402 42.9578C293.705 41.6093 293.356 40.0146 293.356 38.1737C293.356 36.3782 293.705 34.8025 294.402 33.4464C295.099 32.0903 296.08 31.0335 297.345 30.2759C298.618 29.5184 300.11 29.1396 301.822 29.1396C302.974 29.1396 304.046 29.3252 305.038 29.6964C306.038 30.06 306.909 30.6093 307.652 31.3441C308.402 32.079 308.985 33.0032 309.402 34.1168C309.819 35.2229 310.027 36.5184 310.027 38.0032V39.3328H295.288V36.3328H305.47C305.47 35.6358 305.319 35.0184 305.016 34.4805C304.713 33.9426 304.292 33.5221 303.754 33.2191C303.224 32.9085 302.606 32.7532 301.902 32.7532C301.167 32.7532 300.516 32.9237 299.947 33.2646C299.387 33.5979 298.947 34.0487 298.629 34.6168C298.311 35.1775 298.148 35.8025 298.141 36.4918V39.3441C298.141 40.2078 298.3 40.954 298.618 41.5828C298.944 42.2115 299.402 42.6964 299.993 43.0373C300.584 43.3782 301.284 43.5487 302.095 43.5487C302.633 43.5487 303.125 43.4729 303.572 43.3214C304.019 43.1699 304.402 42.9426 304.72 42.6396C305.038 42.3365 305.281 41.9653 305.447 41.5259L309.925 41.8214C309.697 42.8971 309.231 43.8365 308.527 44.6396C307.83 45.435 306.928 46.0562 305.822 46.5032C304.724 46.9426 303.455 47.1623 302.016 47.1623Z" fill="black"/>
<path d="M316.016 47.1168C315.266 47.1168 314.622 46.8517 314.084 46.3214C313.553 45.7835 313.288 45.1396 313.288 44.3896C313.288 43.6471 313.553 43.0108 314.084 42.4805C314.622 41.9502 315.266 41.685 316.016 41.685C316.743 41.685 317.379 41.9502 317.925 42.4805C318.47 43.0108 318.743 43.6471 318.743 44.3896C318.743 44.8896 318.614 45.3479 318.356 45.7646C318.106 46.1737 317.777 46.5032 317.368 46.7532C316.959 46.9956 316.508 47.1168 316.016 47.1168Z" fill="black"/>
<path d="M7.26984 56.6384C11.8432 37.8052 28.817 23.8214 49.0569 23.8214C59.6507 23.8214 69.3496 27.6523 76.8441 34.0044C72.2707 52.8376 55.2969 66.8214 35.0569 66.8214C24.4632 66.8214 14.7643 62.9905 7.26984 56.6384Z" fill="#5451FF"/>
<path d="M2.72352 58.0814C-4.08497 39.9362 2.08765 18.828 18.8244 7.44668C27.5846 1.48961 37.759 -0.796444 47.5282 0.241955C54.3367 18.3872 48.1641 39.4954 31.4273 50.8767C22.6672 56.8338 12.4927 59.1198 2.72352 58.0814Z" fill="#FA5B5B"/>
</svg>
